<?xml version="1.0" encoding="UTF-8"?>
<svg id="Layer_2" data-name="Layer 2" xmlns="http://www.w3.org/2000/svg" viewBox="0 0 372.86 360.71">
  <defs>
    <style>
      .cls-1 {
        fill: #1194d2;
      }
    </style>
  </defs>
  <path class="cls-1" d="M283.53,300.3c-2.07-.88-4.12-1.85-6.12-3-27.91-15.94-37.6-51.48-21.65-79.39l1.21-2.11c2.21-3.87-.5-7.25-2.05-8.32,0,0,0-.01,0-.01l-.57-.44c-11.17-8.17-18.69-19.8-21.94-32.53-.33-1.37-.65-2.85-.96-4.46-1.78-10.22-.84-20.95,3.11-31.06.44-1.04.9-2.12,1.34-3.15.28-.61.58-1.23.88-1.85.26-.51.34-.7.45-.91,6.3-11.69,16.48-20.97,28.81-26.16,8.45-3.56,15.81-6.96,21.11-12.84,5.31-5.87,8.18-10.82,10.92-18.39,2.55-6.99,3.52-12.6,3.53-20.72,0-8.04-2.13-14.95-2.84-17.3-.72-2.36-1.61-4.37-3.03-7.49-.84-1.84-1.38-2.8-2.23-4.13-.43-.68-.83-1.46-1.4-1.27-.57.18-.55.46-.51.68.26,2.23.43,4.5.43,6.8,0,32.14-26.04,58.18-58.19,58.18h-2.44c-4.45,0-6.04,4.03-6.2,5.9,0,.01,0,.01,0,.02l-.11.71c-1.56,13.69-7.87,25.95-17.24,35.08-1.06,1-2.23,2.05-3.53,3.16-3.98,3.28-8.4,6.23-13.16,8.55-19.71,9.1-42.38,6.2-59.11-6.27-7.34-5.47-14.02-10.09-21.77-11.67-7.75-1.58-13.47-1.55-21.39-.07-7.31,1.35-12.64,3.37-19.64,7.48-6.93,4.08-11.79,9.42-13.46,11.23-1.67,1.82-2.94,3.61-4.92,6.42-1.16,1.64-1.71,2.6-2.43,4.02-.36.71-.82,1.46-.38,1.85.44.4.68.21.85.09,1.8-1.35,3.66-2.65,5.64-3.82,27.69-16.31,63.35-7.1,79.67,20.58l1.24,2.12c2.26,3.83,6.54,3.15,8.23,2.34h0s.69-.28.69-.28c25.73-11.48,56.36-2.78,72.11,21,.34.5.46.67.6.88,7.01,11.26,10.01,24.69,8.4,37.96-1.1,9.1-1.81,17.18.67,24.7,2.48,7.52,5.34,12.47,10.54,18.6,4.8,5.68,9.2,9.31,16.24,13.34,6.98,4,14.04,5.57,16.44,6.12,2.4.55,4.58.77,8,1.09,2.01.19,3.11.19,4.7.12.8-.04,1.67,0,1.79-.58.12-.59-.1-.69-.34-.79Z"/>
  <path class="cls-1" d="M102.73,86.52c22.39,6.98,36.79,22.05,45.78,29.48,8.98,7.44,14.61,8.98,23.62,7.91,15.99-1.91,27.43-16.42,25.53-32.41-.84-7.06-4.01-13.38-8.93-17.76-13.63-12.18-26.09-20.19-45.14-26.83-19.05-6.65-46.85-5.88-70.9,2.88-24.04,8.75-46.49,30.47-54.15,40.37-7.66,9.88-12.92,20.04-14.65,23.26-1.73,3.23-2.77,5.52-3.46,7.28-.68,1.75-.49,2.09.14,2.49.63.38.85.32,1.55-.32.69-.64,1.69-1.54,4.97-4.81,3.28-3.28,10.15-11.03,26.29-20.2,19.6-11.15,46.95-18.33,69.35-11.35Z"/>
  <path class="cls-1" d="M278.48,357.33c-.91-.28-2.18-.69-6.66-1.89-4.47-1.2-14.63-3.25-30.67-12.59-19.47-11.37-39.42-31.41-44.63-54.29-5.21-22.87.61-42.89,2.52-54.4,1.92-11.5.43-17.14-5.02-24.39-9.67-12.88-27.95-15.48-40.83-5.81-5.69,4.26-9.55,10.18-10.88,16.64-3.69,17.9-4.36,32.71-.55,52.51,3.82,19.8,18.45,43.46,38.08,59.86,19.64,16.4,49.7,24.91,62.1,26.57,12.39,1.67,23.81,1.1,27.47.99,3.66-.12,6.17-.38,8.04-.67,1.86-.29,2.06-.63,2.08-1.37.01-.74-.15-.9-1.05-1.17Z"/>
  <path class="cls-1" d="M363.8,32.34c-4.7-11.59-10.83-21.25-12.74-24.37-1.92-3.11-3.38-5.17-4.55-6.64-1.17-1.48-1.57-1.49-2.22-1.14-.65.36-.72.57-.5,1.5.21.92.48,2.24,1.66,6.72,1.17,4.48,4.43,14.31,4.25,32.88-.22,22.55-7.78,49.81-25.07,65.66-17.29,15.84-37.57,20.7-48.51,24.74-10.95,4.03-15.1,8.12-18.71,16.45-6.4,14.78.39,31.95,15.18,38.35,6.52,2.83,13.57,3.26,19.85,1.21,17.38-5.65,30.57-12.4,45.89-25.52,15.32-13.12,28.63-37.55,33.16-62.73,4.52-25.18-2.98-55.51-7.67-67.1Z"/>
</svg>