<?xml version="1.0" encoding="UTF-8"?>
<svg id="Layer_1" xmlns="http://www.w3.org/2000/svg" version="1.1" viewBox="0 0 85.6 92.4">
  <!-- Generator: Adobe Illustrator 29.7.1, SVG Export Plug-In . SVG Version: 2.1.1 Build 8)  -->
  <defs>
    <style>
      .st0 {
        fill: #1194d2;
        fill-rule: evenodd;
      }
    </style>
  </defs>
  <path class="st0" d="M59.6,9c-6.4,9.4-12.9,17.6-22.1,25.1-7.8,6.2-16.4,11.5-25.5,15.7-.3.1-.4.4-.3.7,0,.3.4.5.7.4,14.4-2.8,30.2-6.9,41.8-16,6.1-4.7,10.7-10.4,16.7-17.4l5.8,4.4h0c.2.1.4.1.6,0s.3-.3.3-.6l-2.2-20.5c0-.2-.2-.5-.4-.6-.2-.2-.5-.2-.8-.2l-20.3,3.5c-.2,0-.4.2-.5.4,0,.2,0,.5.2.6l5.9,4.4ZM72,92.4c-1,0-1.8-.8-1.8-1.8v-55.2c0-1,.8-1.8,1.8-1.8h11.8c.5,0,.9.2,1.3.5.3.3.5.8.5,1.3v55.2c0,.5-.2.9-.5,1.3-.3.3-.8.5-1.3.5h-11.8ZM1.8,92.4h11.8c.5,0,.9-.2,1.3-.5.3-.3.5-.8.5-1.3v-13.2c0-.5-.2-.9-.5-1.3-.3-.3-.8-.5-1.3-.5H1.8c-1,0-1.8.8-1.8,1.8v13.2c0,.5.2.9.5,1.3.3.3.8.5,1.3.5h0ZM48.5,92.4c-1,0-1.8-.8-1.8-1.8v-41.2c0-1,.8-1.8,1.8-1.8h11.8,0c.5,0,.9.2,1.3.5.3.3.5.8.5,1.3v41.2c0,.5-.2.9-.5,1.3-.3.3-.8.5-1.3.5h-11.8ZM25.2,92.4h11.8,0c.5,0,.9-.2,1.3-.5.3-.3.5-.8.5-1.3v-27.2c0-1-.8-1.8-1.8-1.8h-11.8c-1,0-1.8.8-1.8,1.8v27.2c0,.5.2.9.5,1.3.3.3.8.5,1.3.5h0Z"/>
</svg>