<?xml version="1.0" encoding="UTF-8"?>
<svg id="Layer_1" data-name="Layer 1" xmlns="http://www.w3.org/2000/svg" viewBox="0 0 146.05 94.52">
  <defs>
    <style>
      .cls-1 {
        fill: #C2410C;
        fill-rule: evenodd;
      }
    </style>
  </defs>
  <path class="cls-1" d="M0,73.03C0,32.72,32.72,0,73.03,0s73.03,32.72,73.03,73.03c0,2.81-2.28,5.09-5.09,5.09h-27.17c-2.81,0-5.09-2.28-5.09-5.09,0-19.69-15.98-35.66-35.66-35.66s-35.66,15.98-35.66,35.66c0,2.81-2.28,5.09-5.09,5.09H5.09c-2.81,0-5.09-2.28-5.09-5.09ZM10.39,67.93h17.06c2.54-22.91,21.99-40.76,45.58-40.76s43.03,17.85,45.58,40.76h17.06c-2.59-32.3-29.67-57.74-62.63-57.74S12.99,35.63,10.39,67.93Z"/>
  <path class="cls-1" d="M78.12,32.27c0,2.81-2.28,5.09-5.09,5.09s-5.09-2.28-5.09-5.09V5.09c0-2.81,2.28-5.09,5.09-5.09s5.09,2.28,5.09,5.09v27.17Z"/>
  <path class="cls-1" d="M107.2,46.06c-1.98,1.99-5.22,1.99-7.2,0-1.99-1.99-1.99-5.22,0-7.21l16.98-16.98c1.98-1.98,5.22-1.98,7.2,0,1.99,1.99,1.99,5.22,0,7.21l-16.98,16.98Z"/>
  <path class="cls-1" d="M47.76,38.85c1.99,1.99,1.99,5.22,0,7.21-1.98,1.99-5.22,1.99-7.2,0l-16.98-16.98c-1.99-1.99-1.99-5.22,0-7.21s5.22-1.98,7.2,0l16.98,16.98Z"/>
  <path class="cls-1" d="M104.77,43.58s-3.95,17.38-7.81,29.94c-1.84,5.99-3.78,10.95-5.24,13.03-5.91,8.44-17.57,10.5-26.02,4.59-8.44-5.91-10.5-17.57-4.59-26.02,1.45-2.07,5.45-5.6,10.45-9.38,10.48-7.92,25.47-17.57,25.47-17.57,1.74-1.12,3.99-1.07,5.68.11,1.7,1.19,2.51,3.28,2.05,5.31ZM91.8,53.88c-4.5,3.06-9.7,6.68-14.09,10-3.87,2.93-7.12,5.49-8.25,7.1-2.69,3.84-1.75,9.14,2.09,11.82,3.84,2.69,9.14,1.76,11.83-2.08,1.13-1.61,2.42-5.54,3.84-10.18,1.62-5.26,3.25-11.38,4.58-16.66Z"/>
</svg>