<?xml version="1.0" encoding="UTF-8"?>
<svg id="Layer_1" data-name="Layer 1" xmlns="http://www.w3.org/2000/svg" viewBox="0 0 91.81 90.97">
  <defs>
    <style>
      .cls-1 {
        fill: #C2410C;
        fill-rule: evenodd;
      }
    </style>
  </defs>
  <path class="cls-1" d="M16.46,47.63c-3.13,0-5.95,1.89-7.15,4.78-1.2,2.89-.53,6.22,1.68,8.43,2.21,2.21,5.55,2.88,8.44,1.67,2.89-1.2,4.78-4.03,4.77-7.16,0-4.27-3.47-7.73-7.74-7.73ZM46.66.54l3.53,10.95c.1.33.41.55.75.54h11.5c.32,0,.61.22.72.52.11.31.01.65-.24.86l-9.31,6.74c-.28.2-.39.55-.28.87l3.59,10.93c.1.32-.01.67-.29.87-.27.2-.64.2-.91,0l-9.29-6.77c-.28-.2-.65-.2-.92,0l-9.29,6.77c-.27.2-.64.2-.91,0-.27-.2-.39-.55-.29-.87l3.57-10.93c.11-.32,0-.68-.28-.87l-9.39-6.74c-.27-.2-.39-.55-.29-.87.11-.32.4-.54.73-.54h11.5c.34,0,.65-.21.75-.54l3.56-10.92c.11-.32.4-.54.74-.54s.63.21.74.54h0ZM17.07,12.93c-.08-.27-.33-.45-.61-.45s-.52.18-.61.45l-2.91,9c-.09.27-.34.45-.62.45H2.84h0c-.28,0-.52.19-.61.45-.09.27,0,.55.23.72l7.68,5.55c.23.16.33.45.24.72l-3,9c-.1.27,0,.57.23.74s.55.16.77-.02l7.66-5.58c.22-.17.54-.17.76,0l7.66,5.58c.23.18.54.19.77.02s.32-.47.23-.74l-2.95-9c-.09-.27,0-.56.23-.72l7.68-5.55c.22-.16.31-.45.23-.71-.08-.27-.32-.45-.6-.46h-9.48c-.28,0-.53-.18-.62-.45l-2.91-9h.03ZM75.99,12.93c-.09-.27-.33-.45-.61-.45s-.53.18-.61.45l-2.91,9c-.09.27-.34.45-.62.45h-9.48c-.28.01-.52.19-.6.46-.08.26.01.55.23.71l7.68,5.55c.23.16.32.45.23.72l-2.95,9c-.1.27,0,.57.23.74.23.17.55.16.77-.02l7.66-5.58c.23-.17.54-.17.76,0l7.66,5.58c.22.18.54.19.77.02.23-.17.33-.47.23-.74l-2.95-9h0c-.09-.27.01-.56.24-.72l7.68-5.55c.22-.17.31-.46.23-.72-.09-.26-.33-.45-.61-.45h-9.48c-.29,0-.54-.18-.62-.45l-2.91-9h-.02ZM45.92,64.79c-4.63.08-9.09,1.8-12.57,4.86-3.48,3.06-5.76,7.25-6.43,11.84-.3,1.81.48,3.64,2,4.67,5.21,3.46,12.8,4.82,17,4.82s11.79-1.36,16.93-4.87h0c1.53-1,2.34-2.8,2.07-4.62-.68-4.58-2.96-8.78-6.43-11.84-3.48-3.06-7.93-4.78-12.57-4.86h0ZM45.92,44.23c-3.64,0-6.92,2.19-8.32,5.55-1.39,3.36-.62,7.23,1.95,9.81s6.45,3.34,9.81,1.95c3.36-1.39,5.55-4.68,5.55-8.32,0-4.97-4.03-9-9-9ZM75.38,47.63c-3.13,0-5.96,1.89-7.15,4.78-1.2,2.89-.54,6.22,1.68,8.43,2.21,2.21,5.54,2.88,8.44,1.67,2.89-1.2,4.77-4.03,4.77-7.16,0-4.27-3.47-7.73-7.74-7.73ZM16.46,64.98c4.99.09,9.68,2.38,12.81,6.26-2.24,2.89-3.69,6.3-4.22,9.92-.25,1.63.11,3.29,1,4.67-3.09,1.09-6.34,1.68-9.62,1.76-3.63,0-10.17-1.18-14.62-4.21-1.32-.88-2-2.44-1.76-4,.59-3.95,2.56-7.57,5.56-10.21s6.85-4.12,10.85-4.19h0ZM75.38,64.98c3.99.07,7.82,1.55,10.82,4.19,3,2.63,4.97,6.24,5.56,10.18.24,1.56-.45,3.12-1.76,4-4.45,3-11,4.21-14.62,4.21h0c-3.28-.08-6.53-.67-9.62-1.76.89-1.38,1.25-3.04,1-4.67-.53-3.61-1.98-7.03-4.22-9.92,3.14-3.88,7.85-6.16,12.84-6.23h0Z"/>
</svg>