<?xml version="1.0" encoding="UTF-8"?>
<svg id="Layer_1" data-name="Layer 1" xmlns="http://www.w3.org/2000/svg" viewBox="0 0 93.74 90.63">
  <defs>
    <style>
      .cls-1 {
        fill: #C2410C;
      }
    </style>
  </defs>
  <path class="cls-1" d="M93.74,51.57c0,.16-.04.32-.09.47-.01.04,0,.08-.02.12,0,0,0,0,0,0,0,0,0,.01,0,.02-.07.17-.18.31-.29.44-.04.04-.07.07-.11.1-.11.09-.22.17-.35.23-.03.02-.05.04-.08.05l-20.54,8.46c-3.45,1.42-6.23,4.21-7.65,7.65l-8.46,20.54s0,0,0,0c0,0,0,.01,0,.02-.07.17-.18.31-.29.44-.04.04-.07.07-.11.1-.11.09-.22.17-.35.23-.03.02-.05.04-.08.05-.02,0-.04,0-.06.01-.17.06-.35.11-.53.11t-.01,0h0c-.18,0-.36-.04-.53-.11-.02,0-.04,0-.06-.01-.03-.01-.05-.04-.08-.05-.13-.06-.25-.14-.35-.23-.04-.04-.08-.06-.11-.1-.12-.13-.22-.27-.29-.44,0,0,0,0,0-.02,0,0,0,0,0,0l-8.46-20.54c-1.42-3.45-4.21-6.23-7.65-7.65l-20.54-8.46s-.05-.04-.08-.05c-.13-.06-.25-.14-.35-.23-.04-.04-.08-.06-.11-.1-.12-.13-.22-.27-.29-.44,0,0,0,0,0-.02,0,0,0,0,0,0-.02-.04-.01-.08-.02-.12-.05-.15-.09-.31-.09-.47s.04-.32.09-.47c.01-.04,0-.08.02-.12.08-.19.2-.36.34-.51.14-.14.32-.26.5-.34h0s20.54-8.46,20.54-8.46c3.45-1.42,6.23-4.21,7.65-7.65l8.45-20.54c.08-.19.2-.36.34-.51.14-.14.32-.26.5-.34h0c.05-.02.11-.02.16-.03.14-.04.29-.09.44-.09.18,0,.34.04.5.1.03.01.06,0,.09.02h0c.19.08.36.19.51.34.14.14.26.32.34.51h0s8.46,20.55,8.46,20.55c1.42,3.45,4.21,6.23,7.65,7.65l20.54,8.46h0c.19.08.36.19.5.34.14.14.26.32.34.51h0s.01.09.02.13c.05.15.09.3.09.47h0ZM24.88,72.86s0-.01-.01-.02c-.06-.14-.15-.26-.25-.38-.03-.04-.05-.09-.09-.12-.06-.06-.14-.09-.21-.14-.1-.07-.18-.15-.29-.19,0,0-.01-.01-.02-.01l-3.77-1.51c-2.14-.86-3.78-2.6-4.51-4.79l-1.75-5.25s-.04-.06-.05-.09c-.04-.1-.1-.19-.16-.28-.05-.08-.11-.16-.18-.23-.07-.07-.14-.12-.23-.17-.09-.06-.18-.12-.28-.16-.04-.02-.06-.04-.09-.05-.06-.02-.12,0-.18-.02-.11-.02-.21-.04-.32-.04s-.21.02-.32.04c-.06.01-.12,0-.18.02-.04.01-.06.04-.09.05-.1.04-.19.1-.28.16-.08.05-.16.11-.22.17-.07.07-.12.15-.18.23-.06.09-.12.18-.16.27-.02.04-.04.06-.05.09l-1.75,5.25c-.73,2.18-2.37,3.93-4.51,4.79l-3.77,1.51s-.01,0-.02.01c-.13.05-.25.15-.36.24-.05.04-.11.06-.14.1-.05.05-.07.11-.11.16-.08.11-.17.21-.22.34,0,0,0,.01-.01.02-.03.07-.02.14-.04.21-.03.12-.07.24-.07.36s.04.24.07.36c.02.07.01.14.04.21,0,0,0,.01.01.02.01.03.04.05.05.09.07.14.15.26.25.37.04.04.08.07.12.11.11.09.22.17.35.23.03.02.05.04.09.05l3.77,1.51c2.14.86,3.78,2.6,4.51,4.79l1.75,5.25s.04.07.06.11c.03.06.06.12.09.18.06.11.14.2.22.29.04.04.08.09.13.12.13.11.28.2.44.25.02,0,.02.02.04.02h0c.16.06.32.09.49.09s.33-.03.48-.08h0s.02-.02.04-.02c.16-.06.31-.14.44-.25.05-.04.09-.08.13-.12.09-.09.16-.18.22-.29.04-.06.07-.12.09-.18.02-.04.05-.07.06-.11l1.75-5.25c.73-2.18,2.37-3.93,4.51-4.79l3.77-1.51s.05-.04.09-.05c.12-.06.24-.14.35-.23.04-.04.09-.07.12-.11.1-.11.18-.23.25-.37.02-.03.04-.05.05-.09,0,0,0-.01.01-.02.03-.07.02-.14.04-.21.03-.12.07-.24.07-.36s-.04-.24-.07-.36c-.01-.08,0-.15-.03-.22h0ZM4.82,17.79s.01.07.03.11c.04.09.11.16.16.24.02.03.04.07.07.09.12.14.27.25.43.34.02,0,.02.02.04.03l6.3,3.15c1.65.82,2.96,2.21,3.69,3.91l3.34,7.78c.07.17.17.31.29.43.03.03.07.05.1.09.11.1.23.18.36.25.03.01.04.04.07.05.02,0,.04,0,.07.01.18.07.36.11.55.11,0,0,0,0,0,0h0c.19,0,.37-.05.55-.11.02,0,.04,0,.07-.01.03-.01.05-.04.07-.05.13-.07.25-.15.36-.25.03-.03.07-.05.1-.09.12-.12.22-.27.29-.43l3.34-7.78c.73-1.7,2.04-3.09,3.69-3.91l6.3-3.15s.02-.02.04-.03c.16-.09.3-.2.43-.34.03-.03.04-.06.07-.09.06-.08.12-.15.16-.24.02-.04.02-.07.03-.11.04-.1.06-.2.08-.31.02-.1.04-.19.04-.29,0-.1-.02-.19-.04-.29-.02-.11-.04-.21-.08-.31-.02-.04-.01-.07-.03-.11-.03-.05-.08-.09-.11-.14-.06-.09-.12-.18-.2-.25-.08-.08-.16-.14-.25-.2-.05-.04-.09-.08-.14-.11l-6.3-3.15c-1.65-.82-2.96-2.21-3.69-3.91l-3.34-7.78c-.03-.07-.09-.12-.12-.18-.07-.11-.12-.22-.21-.31-.09-.09-.21-.15-.32-.22-.06-.04-.1-.09-.17-.12,0,0-.01,0-.02,0-.13-.05-.27-.07-.41-.09-.07,0-.13-.04-.19-.04-.04,0-.08.02-.12.02-.17.01-.33.04-.48.1,0,0,0,0-.01,0-.05.02-.09.07-.14.09-.12.07-.25.14-.35.24-.09.09-.14.19-.2.3-.04.07-.1.12-.13.19l-3.34,7.78c-.73,1.7-2.04,3.09-3.69,3.91l-6.3,3.15c-.05.03-.09.08-.14.11-.09.06-.17.12-.25.2s-.14.16-.2.25c-.04.05-.08.09-.11.14-.02.04-.02.07-.03.11-.04.1-.06.2-.08.31-.02.1-.04.19-.04.29,0,.1.02.19.04.29.02.11.04.21.08.31Z"/>
</svg>