<?xml version="1.0" encoding="UTF-8"?>
<svg id="Layer_1" data-name="Layer 1" xmlns="http://www.w3.org/2000/svg" viewBox="0 0 71.88 84.38">
  <defs>
    <style>
      .cls-1 {
        fill: #2098d0;
      }
    </style>
  </defs>
  <path class="cls-1" d="M70.73,68.8c-7.77-2.15-9.27-3.64-11.41-11.41-.19-.68-.8-1.15-1.51-1.15s-1.32.47-1.51,1.15c-2.15,7.77-3.64,9.27-11.41,11.41-.68.19-1.15.8-1.15,1.51s.47,1.32,1.15,1.51c7.77,2.15,9.27,3.64,11.41,11.41.19.68.8,1.15,1.51,1.15s1.32-.47,1.51-1.15c2.15-7.77,3.64-9.27,11.41-11.41.68-.19,1.15-.8,1.15-1.51s-.47-1.32-1.15-1.51Z"/>
  <path class="cls-1" d="M40.62,70.31c0-2.1,1.41-3.96,3.44-4.52,6.69-1.85,7.38-2.54,9.23-9.23.56-2.02,2.42-3.44,4.52-3.44.53,0,1.04.09,1.52.25,0-14.24.05-31.5.05-31.5h-12.5c-5.17,0-9.38-4.2-9.38-9.38V0H8.84C3.96,0,0,3.96,0,8.84v54.2c0,4.88,3.96,8.84,8.84,8.84h32.06c-.18-.49-.27-1.02-.27-1.56h0ZM14.06,28.12h29.69c1.73,0,3.12,1.4,3.12,3.12s-1.4,3.12-3.12,3.12H14.06c-1.73,0-3.12-1.4-3.12-3.12s1.4-3.12,3.12-3.12ZM14.06,40.62h29.69c1.73,0,3.12,1.4,3.12,3.12s-1.4,3.12-3.12,3.12H14.06c-1.73,0-3.12-1.4-3.12-3.12s1.4-3.12,3.12-3.12ZM10.94,56.25c0-1.73,1.4-3.12,3.12-3.12h29.69c1.73,0,3.12,1.4,3.12,3.12s-1.4,3.12-3.12,3.12H14.06c-1.73,0-3.12-1.4-3.12-3.12Z"/>
  <path class="cls-1" d="M43.75,12.5c0,1.72,1.4,3.12,3.12,3.12h10.96c-.31-.45-.66-.88-1.06-1.27l-11.95-11.79c-.33-.33-.7-.6-1.07-.87v10.81h0Z"/>
</svg>