<?xml version="1.0" encoding="UTF-8"?>
<svg id="Layer_1" xmlns="http://www.w3.org/2000/svg" version="1.1" viewBox="0 0 86.8 86.8">
  <!-- Generator: Adobe Illustrator 29.7.1, SVG Export Plug-In . SVG Version: 2.1.1 Build 8)  -->
  <defs>
    <style>
      .st0 {
        fill: #1194d2;
      }
    </style>
  </defs>
  <path class="st0" d="M34.2,3.9h-11.8c-.4,0-.9-.2-1.1-.6l-1.1-1.6c-.7-1.1-2-1.8-3.3-1.8h-7.8c-2.2,0-3.9,1.8-3.9,3.9v1.3h-1.3c-2.2,0-3.9,1.8-3.9,3.9v18.4c0,2.2,1.8,3.9,3.9,3.9h10.5v-7.9c0-5.1,4.1-9.2,9.2-9.2h9.2v-1.3c0-2.2-1.8-3.9-3.9-3.9h-11.8c-.4,0-.9-.2-1.1-.6l-1.1-1.6c-.7-1.1-2-1.8-3.3-1.8h-3.9v-1.3c0-.7.6-1.3,1.3-1.3h7.8c.4,0,.9.2,1.1.6l1.1,1.6c.7,1.1,2,1.8,3.3,1.8h11.8c.7,0,1.3.6,1.3,1.3v6.6h2.6v-6.6c0-2.2-1.8-3.9-3.9-3.9h0Z"/>
  <path class="st0" d="M23.7,72.4c-2.5,0-4.8-1-6.4-2.6H7.9c-.7,0-1.3-.6-1.3-1.3s.6-1.3,1.3-1.3h7.5c-.4-.8-.7-1.7-.8-2.6h-6.7c-.7,0-1.3-.6-1.3-1.3s.6-1.3,1.3-1.3h6.6v-2.6h-6.6c-.7,0-1.3-.6-1.3-1.3s.6-1.3,1.3-1.3h6.6v-6.6H3.9C1.8,50,0,51.8,0,53.9v28.9c0,2.2,1.8,3.9,3.9,3.9h21.1c2.2,0,3.9-1.8,3.9-3.9v-10.5h-5.3ZM21.1,80.3H7.9c-.7,0-1.3-.6-1.3-1.3s.6-1.3,1.3-1.3h13.2c.7,0,1.3.6,1.3,1.3s-.6,1.3-1.3,1.3ZM21.1,75H7.9c-.7,0-1.3-.6-1.3-1.3s.6-1.3,1.3-1.3h13.2c.7,0,1.3.6,1.3,1.3s-.6,1.3-1.3,1.3Z"/>
  <path class="st0" d="M82.9,0h-21.1c-2.2,0-3.9,1.8-3.9,3.9v10.5h5.3c2.5,0,4.8,1,6.4,2.6h9.4c.7,0,1.3.6,1.3,1.3s-.6,1.3-1.3,1.3h-7.5c.4.8.7,1.7.8,2.6h6.7c.7,0,1.3.6,1.3,1.3s-.6,1.3-1.3,1.3h-6.6v2.6h6.6c.7,0,1.3.6,1.3,1.3s-.6,1.3-1.3,1.3h-6.6v6.6h10.5c2.2,0,3.9-1.8,3.9-3.9V3.9C86.8,1.8,85.1,0,82.9,0h0ZM79,14.5h-13.2c-.7,0-1.3-.6-1.3-1.3s.6-1.3,1.3-1.3h13.2c.7,0,1.3.6,1.3,1.3s-.6,1.3-1.3,1.3ZM79,9.2h-13.2c-.7,0-1.3-.6-1.3-1.3s.6-1.3,1.3-1.3h13.2c.7,0,1.3.6,1.3,1.3s-.6,1.3-1.3,1.3Z"/>
  <path class="st0" d="M63.2,17.1H23.7c-3.6,0-6.6,2.9-6.6,6.6v39.5c0,3.6,2.9,6.6,6.6,6.6h21.1c0-2.8.6-5.5,1.7-7.9h-22.7c-.7,0-1.3-.6-1.3-1.3s.6-1.3,1.3-1.3h24.1c.6-1,1.4-2,2.2-2.9v-10.3c0-.7.6-1.3,1.3-1.3s1.3.6,1.3,1.3v7.9c.8-.6,1.7-1.2,2.6-1.7v-15.4c0-.7.6-1.3,1.3-1.3s1.3.6,1.3,1.3v14.3c.9-.3,1.7-.6,2.6-.7v-21.4c0-.7.6-1.3,1.3-1.3s1.3.6,1.3,1.3v21.1c.4,0,.9,0,1.3,0s.9,0,1.3.2v-1.6c0-2.2,1.8-3.9,3.9-3.9v-21.1c0-3.6-2.9-6.6-6.6-6.6h0ZM26.3,56.6c0,.7-.6,1.3-1.3,1.3s-1.3-.6-1.3-1.3v-2.6c0-.7.6-1.3,1.3-1.3s1.3.6,1.3,1.3v2.6ZM31.6,56.6c0,.7-.6,1.3-1.3,1.3s-1.3-.6-1.3-1.3v-9.2c0-.7.6-1.3,1.3-1.3s1.3.6,1.3,1.3v9.2ZM36.8,56.6c0,.7-.6,1.3-1.3,1.3s-1.3-.6-1.3-1.3v-15.8c0-.7.6-1.3,1.3-1.3s1.3.6,1.3,1.3v15.8ZM42.1,56.6c0,.7-.6,1.3-1.3,1.3s-1.3-.6-1.3-1.3v-13.2c0-.7.6-1.3,1.3-1.3s1.3.6,1.3,1.3v13.2ZM47.4,56.6c0,.7-.6,1.3-1.3,1.3s-1.3-.6-1.3-1.3v-19.7c0-.7.6-1.3,1.3-1.3s1.3.6,1.3,1.3v19.7Z"/>
  <path class="st0" d="M64.5,86.8c-9.4,0-17.1-7.7-17.1-17.1s7.7-17.1,17.1-17.1,1.3.6,1.3,1.3v14.5h14.5c.7,0,1.3.6,1.3,1.3,0,9.4-7.7,17.1-17.1,17.1h0ZM63.2,55.3c-7.4.7-13.2,6.9-13.2,14.4s6.5,14.5,14.5,14.5,13.7-5.8,14.4-13.2h-14.4c-.7,0-1.3-.6-1.3-1.3v-14.4Z"/>
  <path class="st0" d="M85.5,65.8h-15.8c-.7,0-1.3-.6-1.3-1.3v-15.8c0-.7.6-1.3,1.3-1.3,9.4,0,17.1,7.7,17.1,17.1s-.6,1.3-1.3,1.3h0ZM71.1,63.2h13.1c-.6-6.9-6.2-12.5-13.1-13.1v13.1Z"/>
</svg>