<?xml version="1.0" encoding="UTF-8"?>
<svg id="Layer_1" xmlns="http://www.w3.org/2000/svg" version="1.1" viewBox="0 0 92.3 92.3">
  <!-- Generator: Adobe Illustrator 29.7.1, SVG Export Plug-In . SVG Version: 2.1.1 Build 8)  -->
  <defs>
    <style>
      .st0 {
        fill: #1194d2;
        fill-rule: evenodd;
      }
    </style>
  </defs>
  <path class="st0" d="M57.3,10.6c3.3.8,6.5,2.1,9.4,3.9l5.1-3.9c2-1.5,4.8-1.3,6.5.4l3,3c1.8,1.8,2,4.5.4,6.5l-3.9,5.1c1.7,2.9,3.1,6,3.9,9.4l6.3.8c2.5.3,4.3,2.4,4.3,4.9v4.2c0,2.5-1.8,4.6-4.3,4.9l-6.3.8c-.8,3.3-2.1,6.5-3.9,9.4l3.9,5.1c1.5,2,1.3,4.8-.4,6.5l-3,3c-1.8,1.8-4.5,2-6.5.4l-5.1-3.9c-2.9,1.7-6,3.1-9.4,3.9l-.8,6.3c-.3,2.5-2.4,4.3-4.9,4.3h-4.2c-2.5,0-4.6-1.8-4.9-4.3l-.8-6.3c-2.8-.7-5.5-1.7-7.9-3.1,0,0,0-.2,0-.3,0-3.5,1.4-4.8,3.5-7.2,1.4-1.6,2.4-3.2,3.2-4.8,2.7,1.5,5.8,2.3,9.1,2.3,10.6,0,19.2-8.6,19.2-19.2s-8.6-19.2-19.2-19.2-13.4,3.9-16.7,9.7c-3.7-2.7-8.2-4.2-13-4.2s-.3,0-.5,0c.6-1.2,1.2-2.4,1.9-3.5l-3.9-5.1c-1.5-2-1.3-4.8.4-6.5l3-3c1.8-1.8,4.5-2,6.5-.4l5.1,3.9c2.9-1.7,6-3.1,9.4-3.9l.8-6.3c.3-2.5,2.4-4.3,4.9-4.3h4.2c2.5,0,4.6,1.8,4.9,4.3l.8,6.3ZM25.9,86.9v1.5c0,2.2-1.3,4-2.8,4h-6.8c-1.5,0-2.8-1.8-2.8-4v-1.5h12.4ZM29.7,77.6H9.7v1.5c0,2.4,1.6,4.5,3.8,5.3h12.4c2.2-.7,3.8-2.8,3.8-5.3v-1.5ZM19.7,31.6C8.8,31.6,0,40.4,0,51.3s8.3,11.4,8.3,20.5.2,2.3.5,3.3h9.6v-14.7s-9.2-9.2-9.2-9.2c-.5-.5-.5-1.3,0-1.8s1.3-.5,1.8,0l8.7,8.7,8.7-8.7c.5-.5,1.3-.5,1.8,0s.5,1.3,0,1.8l-9.2,9.2v14.7h9.6c.4-1.1.5-2.2.5-3.3,0-9.1,8.3-7.6,8.3-20.5,0-10.9-8.8-19.7-19.7-19.7h0ZM54.9,44.4c1.1-.7,1.1-2.3,0-3l-9.2-5.3c-1.1-.7-2.6.2-2.6,1.5v10.7c0,1.3,1.4,2.1,2.6,1.5l9.2-5.3Z"/>
</svg>