<?xml version="1.0" encoding="utf-8"?>
<!-- Generator: Adobe Illustrator 28.1.0, SVG Export Plug-In . SVG Version: 6.00 Build 0)  -->
<svg version="1.1" id="Layer_1" xmlns="http://www.w3.org/2000/svg" xmlns:xlink="http://www.w3.org/1999/xlink" x="0px" y="0px"
	 viewBox="0 0 57.7 57.7" style="enable-background:new 0 0 57.7 57.7;" xml:space="preserve">
<style type="text/css">
	.st0{fill:#FFFFFF;}
</style>
<path class="st0" d="M28.9,0C21.5,0,14.1,2.8,8.4,8.4C-2.8,19.7-2.8,38,8.4,49.3s29.6,11.2,40.8,0s11.3-29.6,0-40.8
	C43.6,2.8,36.2,0,28.9,0z M16.8,14.4c0.6,0,1.2,0.3,1.7,0.7l10.3,10.3l10.3-10.3c0.5-0.4,1.1-0.7,1.7-0.7c0.6,0,1.2,0.3,1.7,0.7
	c0.9,0.9,1,2.5,0,3.4l0,0L32.2,28.8l10.3,10.3c0.9,0.9,0.9,2.5,0,3.4c-0.9,0.9-2.5,0.9-3.4,0L28.8,32.2L18.5,42.5
	c-0.9,0.9-2.5,1-3.4,0l0,0c-0.9-0.9-0.9-2.5,0-3.4l10.3-10.3L15.1,18.5c-0.9-0.9-0.9-2.5,0-3.4l0,0C15.6,14.7,16.2,14.4,16.8,14.4z"
	/>
</svg>
