<?xml version="1.0" encoding="UTF-8"?>
<svg id="Layer_1" xmlns="http://www.w3.org/2000/svg" version="1.1" viewBox="0 0 67.2 90">
  <!-- Generator: Adobe Illustrator 29.7.1, SVG Export Plug-In . SVG Version: 2.1.1 Build 8)  -->
  <defs>
    <style>
      .st0 {
        fill: #1194d2;
        fill-rule: evenodd;
      }
    </style>
  </defs>
  <path class="st0" d="M65.1,12.2l-10.2-10.1v10.1h10.2ZM17.9,20.3h-4.9c-.7,0-1.3.3-1.8.8h0c-.5.5-.8,1.1-.8,1.8v4.9c0,1.4,1.1,2.6,2.6,2.6h4.9c.7,0,1.3-.2,1.8-.7h0c.5-.5.8-1.2.8-1.9v-4.9c0-.7-.3-1.3-.8-1.8h0c-.5-.5-1.1-.8-1.8-.8h0ZM13,17.4h4.9c1.4,0,2.8.6,3.9,1.6h0c1,1,1.6,2.4,1.6,3.9v4.9c0,1.4-.6,2.8-1.6,3.9h0c-1,1.1-2.4,1.6-3.8,1.6h-4.9c-3,0-5.5-2.5-5.5-5.5v-4.9c0-1.4.6-2.8,1.6-3.9h0c1-1,2.4-1.6,3.9-1.6h0ZM26.9,22.7c-.8,0-1.5-.6-1.5-1.4,0-.8.6-1.5,1.4-1.5,0,0,.1,0,.2,0h31c.8,0,1.5.6,1.5,1.4,0,.8-.6,1.5-1.4,1.5,0,0-.1,0-.2,0h-31ZM26.9,30.8c-.8,0-1.5-.6-1.5-1.4,0-.8.6-1.5,1.4-1.5,0,0,.1,0,.2,0h31.3c.8,0,1.5.6,1.5,1.4,0,.8-.6,1.5-1.4,1.5,0,0-.1,0-.2,0h-31.3ZM12.5,26.1c-.5-.6-.4-1.5.2-2,.6-.5,1.5-.4,2,.2h.1c0,.1,1.3-1.3,1.3-1.3.5-.6,1.4-.7,2-.1s.7,1.4.1,2h0c-.8.9-1.6,1.8-2.4,2.7-.5.6-1.4.7-2,.1,0,0-.1-.1-.2-.2l-1.2-1.5h0ZM17.9,42.8h-4.9c-.7,0-1.3.3-1.8.8h0c-.5.5-.8,1.1-.8,1.8v4.9c0,1.4,1.1,2.6,2.6,2.6h4.9c.7,0,1.3-.2,1.8-.7h0c.5-.5.8-1.2.8-1.9v-4.9c0-.7-.3-1.3-.8-1.8h0c-.5-.5-1.1-.8-1.8-.8h0ZM13,39.9h4.9c1.4,0,2.8.6,3.9,1.6h0c1,1,1.6,2.4,1.6,3.9v4.9c0,1.5-.6,2.8-1.6,3.9h0c-1,1.1-2.4,1.6-3.8,1.6h-4.9c-3,0-5.5-2.5-5.5-5.5v-4.9c0-1.5.6-2.8,1.6-3.9h0c1-1,2.4-1.6,3.9-1.6ZM26.9,45.3c-.8,0-1.5-.6-1.5-1.4,0-.8.6-1.5,1.4-1.5,0,0,.1,0,.2,0h31c.8,0,1.5.6,1.5,1.4,0,.8-.6,1.5-1.4,1.5,0,0-.1,0-.2,0h-31ZM26.9,53.3c-.8,0-1.5-.6-1.5-1.4,0-.8.6-1.5,1.4-1.5,0,0,.1,0,.2,0h31.3c.8,0,1.5.6,1.5,1.4,0,.8-.6,1.5-1.4,1.5,0,0-.1,0-.2,0h-31.3ZM12.5,48.7c-.5-.6-.4-1.5.2-2,.6-.5,1.5-.4,2,.2,0,0,0,0,0,0h.1c0,.1,1.3-1.3,1.3-1.3.5-.6,1.4-.7,2-.2.6.5.7,1.4.2,2h0c-.8.9-1.6,1.8-2.4,2.7-.5.6-1.4.7-2,.1,0,0-.1-.1-.2-.2l-1.2-1.5h0ZM26.6,90h14.2c0-.1,0-.2,0-.3,0-.4.1-.9.1-1.3,0-4-3.2-7.3-7.2-7.3-4,0-7.3,3.2-7.3,7.2,0,0,0,.1,0,.2,0,.4,0,.9.1,1.3,0,.1,0,.2,0,.3ZM7.2,90c0-.6,0-1.2,0-1.8,0-.7,0-1.4.1-2.1l7.1-.8c.6,0,1.1-.5,1.3-1.1.2-1,.5-1.9.9-2.9.4-.9.9-1.8,1.4-2.7.3-.6.3-1.3-.2-1.8l-4.5-5.6c.5-.6,1-1.1,1.5-1.6s1.1-1,1.7-1.5l5.5,4.5c.5.4,1.2.4,1.7,0,1.7-1.1,3.6-1.8,5.5-2.3.6-.1,1-.6,1.1-1.2h0l.9-7.2c.7,0,1.5,0,2.2,0s1.5,0,2.2,0l.8,7.2c0,.6.5,1.1,1.1,1.3,1,.2,2,.6,3,1,.9.4,1.8.8,2.7,1.4.5.3,1.2.3,1.7-.1l5.5-4.5c.6.5,1.2,1,1.7,1.5s1.1,1.1,1.5,1.6l-4.5,5.7c-.4.5-.4,1.1,0,1.7h0c1.1,1.7,1.9,3.6,2.3,5.6.1.6.7,1.1,1.3,1.1l7.1.8c0,.7,0,1.4,0,2,0,.6,0,1.2,0,1.9h-16.3c.9-5.5-2.8-10.8-8.4-11.7-5.5-.9-10.8,2.8-11.7,8.4-.2,1.1-.2,2.2,0,3.3H7.2ZM52,13.6c0,.8.7,1.5,1.5,1.5h13.7v74.9h-4.3c0-.6,0-1.3,0-1.9,0-1.1,0-2.3-.2-3.4,0-.7-.6-1.3-1.3-1.3l-7.3-.8c-.4-1.6-1.1-3.1-1.9-4.6l4.6-5.7c.5-.5.5-1.3,0-1.9-.8-1-1.6-1.9-2.5-2.8-.9-.8-1.8-1.6-2.8-2.4-.5-.5-1.3-.5-1.9,0l-5.7,4.6c-.7-.4-1.5-.7-2.2-1-.8-.3-1.6-.6-2.5-.8l-.8-7.3c0-.7-.6-1.2-1.3-1.3-2.4-.3-4.9-.3-7.3,0-.7,0-1.3.6-1.4,1.3l-.9,7.4c-.8.2-1.6.5-2.3.8-.8.3-1.5.7-2.2,1.1l-5.7-4.6h0c-.5-.4-1.3-.4-1.8,0-1,.8-1.9,1.6-2.8,2.4-.9.9-1.8,1.8-2.5,2.8h0c-.4.5-.4,1.3,0,1.8l4.6,5.8c-.8,1.4-1.4,3-1.9,4.6l-7.3.8c-.8,0-1.4.8-1.3,1.6h0c-.1,1.1-.2,2.2-.2,3.2,0,.6,0,1.2,0,1.8H0V0h52v13.6Z"/>
</svg>