<?xml version="1.0" encoding="UTF-8"?>
<svg id="Layer_1" data-name="Layer 1" xmlns="http://www.w3.org/2000/svg" viewBox="0 0 89.49 110.31">
  <defs>
    <style>
      .cls-1 {
        fill: #2098d0;
      }
    </style>
  </defs>
  <path class="cls-1" d="M51.56,103.28h-9.38c-2.59,0-4.69-2.1-4.69-4.69v-9.38c0-1.24.49-2.44,1.38-3.31l23.62-23.63v-9.77c0-.41-.16-.81-.46-1.1l-18.75-18.75c-.29-.3-.69-.46-1.1-.46H6.2c-3.42,0-6.2,2.78-6.2,6.2v65.72c0,3.42,2.78,6.2,6.2,6.2h50.09c3.42,0,6.2-2.78,6.2-6.2v-9.83l-7.62,7.62c-.88.88-2.07,1.38-3.31,1.38h0ZM41.41,40.92c0-.32.19-.6.48-.73.29-.12.62-.05.85.17l11.58,11.58c.22.23.29.56.17.85-.12.3-.41.48-.73.48h-8.71c-2.02,0-3.65-1.63-3.65-3.65v-8.71ZM15.63,50.15h14.06c1.3,0,2.34,1.05,2.34,2.34s-1.05,2.34-2.34,2.34h-14.06c-1.3,0-2.34-1.05-2.34-2.34s1.05-2.34,2.34-2.34ZM15.63,68.9h21.88c1.3,0,2.34,1.05,2.34,2.34s-1.05,2.34-2.34,2.34H15.63c-1.3,0-2.34-1.05-2.34-2.34s1.05-2.34,2.34-2.34ZM29.69,92.34h-14.06c-1.3,0-2.34-1.05-2.34-2.34s1.05-2.34,2.34-2.34h14.06c1.3,0,2.34,1.05,2.34,2.34s-1.05,2.34-2.34,2.34ZM79.49,70.66l-5.96,5.96-9.38-9.38,5.96-5.96c.48-.48,1.12-.73,1.76-.73s1.27.24,1.76.73l5.86,5.86c.97.97.97,2.55,0,3.52ZM60.84,70.56l9.38,9.38-18.66,18.66h-9.38v-9.38l18.66-18.66Z"/>
  <path class="cls-1" d="M89.47,25.31c0,.08-.02.16-.04.23,0,.02,0,.04,0,.06h0c-.03.09-.09.16-.14.23-.02.02-.03.03-.05.05-.05.04-.11.08-.17.11-.01,0-.02.02-.04.02l-10.08,4.15c-1.69.7-3.06,2.07-3.75,3.75l-4.15,10.08h0c-.03.09-.09.16-.14.23-.02.02-.03.03-.05.05-.05.04-.11.08-.17.11-.01,0-.02.02-.04.02,0,0-.02,0-.03,0-.08.03-.17.05-.26.05-.06,0-.06,0,0,0h0c-.09,0-.18-.02-.26-.05,0,0-.02,0-.03,0-.01,0-.02-.02-.04-.02-.06-.03-.12-.07-.17-.11-.02-.02-.04-.03-.05-.05-.06-.06-.11-.13-.14-.22h0s-4.15-10.09-4.15-10.09c-.7-1.69-2.07-3.06-3.75-3.75l-10.08-4.15s-.02-.02-.04-.02c-.06-.03-.12-.07-.17-.11-.02-.02-.04-.03-.05-.05-.06-.06-.11-.13-.14-.22h0s0-.05,0-.07c-.02-.07-.04-.15-.04-.23s.02-.16.04-.23c0-.02,0-.04,0-.06.04-.09.1-.18.17-.25.07-.07.16-.13.25-.17h0l10.08-4.15c1.69-.7,3.06-2.07,3.75-3.75l4.15-10.08c.04-.09.1-.18.17-.25.07-.07.16-.13.25-.17h0s.05,0,.08-.01c.07-.02.14-.04.22-.04.09,0,.17.02.25.05.01,0,.03,0,.04,0h0c.09.04.18.09.25.17.07.07.13.16.17.25h0l4.15,10.08c.7,1.69,2.07,3.06,3.75,3.75l10.08,4.15h0c.09.04.18.09.25.17.07.07.13.16.17.25h0s0,.04,0,.06c.02.07.04.15.04.23h-.02ZM45.84,8.74s0,.03.01.05c.02.04.05.08.08.12,0,.01.02.03.03.04.06.07.13.12.21.17,0,0,0,0,.02.01l3.09,1.55c.81.4,1.45,1.08,1.81,1.92l1.64,3.82c.03.08.08.15.14.21.01.01.03.02.05.04.05.05.11.09.18.12.01,0,.02.02.03.02,0,0,.02,0,.03,0,.09.03.18.05.27.05h0c.09,0,.18-.02.27-.05,0,0,.02,0,.03,0,.01,0,.02-.02.03-.02.06-.03.12-.07.18-.12.01-.01.03-.02.05-.04.06-.06.11-.13.14-.21l1.64-3.82c.36-.83,1-1.52,1.81-1.92l3.09-1.55s0,0,.02-.01c.08-.04.15-.1.21-.17.01-.01.02-.03.03-.04.03-.04.06-.07.08-.12,0-.02,0-.03.01-.05.02-.05.03-.1.04-.15,0-.05.02-.09.02-.14s0-.09-.02-.14c0-.05-.02-.1-.04-.15,0-.02,0-.03-.01-.05-.01-.02-.04-.04-.05-.07-.03-.04-.06-.09-.1-.12-.04-.04-.08-.07-.12-.1-.02-.02-.04-.04-.07-.05l-3.09-1.55c-.81-.4-1.45-1.08-1.81-1.92l-1.64-3.82s-.04-.06-.06-.09c-.03-.05-.06-.11-.1-.15-.04-.04-.1-.07-.16-.11-.03-.02-.05-.04-.08-.06h0c-.06-.02-.13-.03-.2-.04-.03,0-.06-.02-.09-.02-.02,0-.04,0-.06,0-.08,0-.16.02-.24.05h0s-.04.03-.07.04c-.06.03-.12.07-.17.12-.04.04-.07.09-.1.15-.02.03-.05.06-.06.09l-1.64,3.82c-.36.83-1,1.52-1.81,1.92l-3.09,1.55s-.04.04-.07.05c-.04.03-.08.06-.12.1s-.07.08-.1.12c-.02.02-.04.04-.05.07,0,.02,0,.03-.01.05-.02.05-.03.1-.04.15,0,.05-.02.09-.02.14s0,.09.02.14c0,.05.02.1.04.15h0Z"/>
</svg>