<?xml version="1.0" encoding="UTF-8"?>
<svg id="Layer_1" xmlns="http://www.w3.org/2000/svg" version="1.1" viewBox="0 0 90.8 90.6">
  <!-- Generator: Adobe Illustrator 29.7.1, SVG Export Plug-In . SVG Version: 2.1.1 Build 8)  -->
  <defs>
    <style>
      .st0 {
        fill: #1194d2;
      }
    </style>
  </defs>
  <path class="st0" d="M61.7,69.5l15.6-15.6,8.8,8.8-15.6,15.6-8.8-8.8Z"/>
  <path class="st0" d="M89.5,52.8l-2.2-2.2c-1.8-1.8-4.8-1.8-6.6,0l-1.2,1.2,8.8,8.8,1.2-1.2c.9-.9,1.4-2.1,1.4-3.3s-.5-2.4-1.4-3.3h0Z"/>
  <path class="st0" d="M54.7,18.8h16.3L53.1.9v16.3c0,.9.7,1.6,1.6,1.6h0Z"/>
  <path class="st0" d="M58.5,81.5c.3.3.7.5,1.1.5s.3,0,.4,0l7.7-1.9-7.7-7.7-1.9,7.7c-.1.5,0,1.1.4,1.5h0Z"/>
  <path class="st0" d="M39.6,72.8h-11.5c-.7,0-1.3.6-1.3,1.3s.6,1.3,1.3,1.3h11.5c.7,0,1.3-.6,1.3-1.3s-.6-1.3-1.3-1.3Z"/>
  <path class="st0" d="M47.6,52.1c0-3.8-1.5-7.4-4.3-10-2.7-2.6-6.4-4-10.2-3.8-5.8.3-10.8,4.2-12.5,9.7-1.7,5.6.2,11.6,4.9,15.1,2.2,1.6,3.6,4,4,6.6h2.7v-5.1l-4.9-7.2c-.2-.3-.3-.8-.2-1.2,0-.4.3-.8.7-1,.3-.2.8-.3,1.2-.2.4,0,.8.3,1,.7l4,6,5.2-5.4c.6-.6,1.6-.7,2.2,0s.7,1.6,0,2.2l-6.1,6.4v4.9h2.7c.3-2.6,1.7-4.9,3.8-6.5,3.6-2.6,5.7-6.7,5.7-11.2h0Z"/>
  <path class="st0" d="M69.6,82.7l-8.8,2.2c-.4,0-.8.1-1.1.1-1.2,0-2.4-.5-3.3-1.4-1.2-1.2-1.6-2.8-1.2-4.4l2.2-8.8c.2-.8.6-1.6,1.2-2.2l13.3-13.3V21.9h-17.2c-2.6,0-4.7-2.1-4.7-4.7V0H4.7C2.1,0,0,2.1,0,4.7v81.3c0,2.6,2.1,4.7,4.7,4.7h62.5c2.6,0,4.7-2.1,4.7-4.7v-4.5h0c-.6.7-1.4,1.1-2.2,1.3h0ZM59.4,52.1c0,.4-.2.8-.5,1.1-.3.3-.7.5-1.1.5h-3.8c-.9,0-1.6-.7-1.6-1.6s.7-1.6,1.6-1.6h3.8c.9,0,1.6.7,1.6,1.6h0ZM50.5,40.6l3.3-1.9c.7-.4,1.7-.2,2.1.6.4.7.2,1.7-.6,2.1l-3.3,1.9c-.8.4-1.7.2-2.1-.6-.2-.4-.3-.8-.2-1.2.1-.4.4-.7.7-.9h0ZM42.5,33.8l1.9-3.3c.2-.4.5-.6.9-.7.4-.1.8,0,1.2.2.7.4,1,1.4.6,2.1l-1.9,3.3c-.3.5-.8.8-1.4.8-.6,0-1.1-.3-1.4-.8-.3-.5-.3-1.1,0-1.6h0ZM9.4,7.8h31.2c.9,0,1.6.7,1.6,1.6s-.7,1.6-1.6,1.6H9.4c-.9,0-1.6-.7-1.6-1.6s.7-1.6,1.6-1.6ZM9.4,15.6h26.6c.9,0,1.6.7,1.6,1.6s-.7,1.6-1.6,1.6H9.4c-.9,0-1.6-.7-1.6-1.6s.7-1.6,1.6-1.6ZM35.4,28.1v3.8c0,.9-.7,1.6-1.6,1.6s-1.6-.7-1.6-1.6v-3.8c0-.9.7-1.6,1.6-1.6s1.6.7,1.6,1.6ZM24.5,36c-.8.4-1.7.2-2.1-.6l-1.9-3.3c-.2-.4-.3-.8-.2-1.2.1-.4.4-.7.7-.9.4-.2.8-.3,1.2-.2.4.1.7.4.9.7l1.9,3.3c.4.7.2,1.7-.6,2.1h0ZM17.7,42.8c-.3.5-.8.8-1.4.8-.3,0-.5,0-.8-.2l-3.3-1.9c-.7-.4-1-1.4-.6-2.1.4-.7,1.4-1,2.1-.6l3.3,1.9c.4.2.6.5.7.9.1.4,0,.8-.2,1.2h0ZM8.3,52.1c0-.9.7-1.6,1.6-1.6h3.8c.9,0,1.6.7,1.6,1.6s-.7,1.6-1.6,1.6h-3.8c-.9,0-1.6-.7-1.6-1.6ZM17.2,63.5l-3.3,1.9c-.8.4-1.7.2-2.1-.6s-.2-1.7.6-2.1l3.3-1.9c.8-.4,1.7-.2,2.1.6.4.7.2,1.7-.6,2.1h0ZM44,74.1c0,1.1-.4,2.1-1.1,2.9,1.1,1.3,1.4,3.2.7,4.7-.7,1.6-2.3,2.6-4,2.6h-11.5c-1.7,0-3.3-1-4-2.6-.7-1.6-.5-3.4.7-4.7-.9-1.1-1.3-2.6-.9-3.9.3-1.4,1.3-2.5,2.7-3.1-.3-1.8-1.3-3.4-2.8-4.5-3.8-2.9-6.2-7.2-6.7-12-.4-4.8,1.2-9.5,4.4-13,3.2-3.5,7.8-5.5,12.6-5.4,4.8,0,9.3,2.1,12.5,5.7,3.2,3.6,4.7,8.3,4.2,13.1-.5,4.7-3,9.1-6.9,11.9-1.4,1-2.3,2.6-2.5,4.3,1.7.7,2.8,2.3,2.8,4.1h0ZM53.8,65.4l-3.3-1.9c-.8-.4-1-1.4-.6-2.1s1.4-1,2.1-.6l3.3,1.9c.7.4,1,1.4.6,2.1-.4.7-1.4,1-2.1.6h0Z"/>
  <path class="st0" d="M39.6,78.6h-11.5c-.7,0-1.3.6-1.3,1.3s.6,1.3,1.3,1.3h11.5c.7,0,1.3-.6,1.3-1.3s-.6-1.3-1.3-1.3Z"/>
</svg>